# xmcd
#
# Track frame offsets: 
#        150
#        8408
#        48990
#        85448
#        128424
#        156256
#        196974
#
# Disc length: 2784 seconds
#
# Revision: 2
# Processed by: cddbd v1.5.2PL0 Copyright (c) Steve Scherf et al.
# Submitted via: ExactAudioCopyFreeDBPlugin 1.0
#
DISCID=4a0ade07
DTITLE=Anhedonia - Der Schrei Der Natur
DYEAR=2008
DGENRE=Black Metal
TTITLE0=Intro
TTITLE1=Omnes Una Manet Nox
TTITLE2=Höstkänslor
TTITLE3=Dies Irae
TTITLE4=Lingering.I
TTITLE5=Nattvardsgästerna
TTITLE6=Outro
EXTD=
EXTT0=
EXTT1=
EXTT2=
EXTT3=
EXTT4=
EXTT5=
EXTT6=
PLAYORDER=
